<svg xmlns="http://www.w3.org/2000/svg" style="display: none;">
    <symbol id="angular" viewBox="0 0 448 512">
        <path
            d="M185.7 268.1h76.2l-38.1-91.6-38.1 91.6zM223.8 32L16 106.4l31.8 275.7 176 97.9 176-97.9 31.8-275.7zM354 373.8h-48.6l-26.2-65.4H168.6l-26.2 65.4H93.7L223.8 81.5z"
        />
    </symbol>

    <symbol id="bootstrap" viewBox="0 0 576 512">
        <path
            d="M333.5 201.4c0-22.1-15.6-34.3-43-34.3h-50.4v71.2h42.5C315.4 238.2 333.5 225 333.5 201.4zM517 188.6c-9.5-30.9-10.9-68.8-9.8-98.1c1.1-30.5-22.7-58.5-54.7-58.5H123.7c-32.1 0-55.8 28.1-54.7 58.5c1 29.3-.3 67.2-9.8 98.1c-9.6 31-25.7 50.6-52.2 53.1v28.5c26.4 2.5 42.6 22.1 52.2 53.1c9.5 30.9 10.9 68.8 9.8 98.1c-1.1 30.5 22.7 58.5 54.7 58.5h328.7c32.1 0 55.8-28.1 54.7-58.5c-1-29.3 .3-67.2 9.8-98.1c9.6-31 25.7-50.6 52.1-53.1v-28.5C542.7 239.2 526.5 219.6 517 188.6zM300.2 375.1h-97.9V136.8h97.4c43.3 0 71.7 23.4 71.7 59.4c0 25.3-19.1 47.9-43.5 51.8v1.3c33.2 3.6 55.5 26.6 55.5 58.3C383.4 349.7 352.1 375.1 300.2 375.1zM290.2 266.4h-50.1v78.4h52.3c34.2 0 52.3-13.7 52.3-39.5C344.7 279.6 326.1 266.4 290.2 266.4z" />
    </symbol>

    <symbol id="briefcase" viewBox="0 0 512 512">
        <path
            d="M184 48l144 0c4.4 0 8 3.6 8 8l0 40L176 96l0-40c0-4.4 3.6-8 8-8zm-56 8l0 40L64 96C28.7 96 0 124.7 0 160l0 96 192 0 128 0 192 0 0-96c0-35.3-28.7-64-64-64l-64 0 0-40c0-30.9-25.1-56-56-56L184 0c-30.9 0-56 25.1-56 56zM512 288l-192 0 0 32c0 17.7-14.3 32-32 32l-64 0c-17.7 0-32-14.3-32-32l0-32L0 288 0 416c0 35.3 28.7 64 64 64l384 0c35.3 0 64-28.7 64-64l0-128z" />
    </symbol>

    <symbol id="python" viewBox="0 0 448 512">
        <path
            d="M439.8 200.5c-7.7-30.9-22.3-54.2-53.4-54.2h-40.1v47.4c0 36.8-31.2 67.8-66.8 67.8H172.7c-29.2 0-53.4 25-53.4 54.3v101.8c0 29 25.2 46 53.4 54.3 33.8 9.9 66.3 11.7 106.8 0 26.9-7.8 53.4-23.5 53.4-54.3v-40.7H226.2v-13.6h160.2c31.1 0 42.6-21.7 53.4-54.2 11.2-33.5 10.7-65.7 0-108.6zM286.2 404c11.1 0 20.1 9.1 20.1 20.3 0 11.3-9 20.4-20.1 20.4-11 0-20.1-9.2-20.1-20.4 .1-11.3 9.1-20.3 20.1-20.3zM167.8 248.1h106.8c29.7 0 53.4-24.5 53.4-54.3V91.9c0-29-24.4-50.7-53.4-55.6-35.8-5.9-74.7-5.6-106.8 .1-45.2 8-53.4 24.7-53.4 55.6v40.7h106.9v13.6h-147c-31.1 0-58.3 18.7-66.8 54.2-9.8 40.7-10.2 66.1 0 108.6 7.6 31.6 25.7 54.2 56.8 54.2H101v-48.8c0-35.3 30.5-66.4 66.8-66.4zm-6.7-142.6c-11.1 0-20.1-9.1-20.1-20.3 .1-11.3 9-20.4 20.1-20.4 11 0 20.1 9.2 20.1 20.4s-9 20.3-20.1 20.3z" />
    </symbol>

    <symbol id="tailwinds" viewBox="0 0 64 64">
        <path
            d="M16 25.6c2.133-8.533 7.467-12.8 16-12.8 12.8 0 14.4 9.6 20.8 11.2 4.267 1.067 8-.533 11.2-4.8C61.867 27.733 56.533 32 48 32c-12.8 0-14.4-9.6-20.8-11.2-4.267-1.067-8 .533-11.2 4.8zM0 44.8C2.133 36.267 7.467 32 16 32c12.8 0 14.4 9.6 20.8 11.2 4.267 1.067 8-.533 11.2-4.8-2.133 8.533-7.467 12.8-16 12.8-12.8 0-14.4-9.6-20.8-11.2-4.267-1.067-8 .533-11.2 4.8z" />
    </symbol>

    <symbol id="csharp" viewBox="0 0 50 50">
        <path
            d="M 25 2 C 24.285156 2 23.570313 2.179688 22.933594 2.539063 L 6.089844 12.003906 C 4.800781 12.726563 4 14.082031 4 15.535156 L 4 34.464844 C 4 35.917969 4.800781 37.273438 6.089844 37.996094 L 22.933594 47.460938 C 23.570313 47.820313 24.285156 48 25 48 C 25.714844 48 26.429688 47.820313 27.066406 47.460938 L 43.910156 38 C 45.199219 37.273438 46 35.917969 46 34.464844 L 46 15.535156 C 46 14.082031 45.199219 12.726563 43.910156 12.003906 L 27.066406 2.539063 C 26.429688 2.179688 25.714844 2 25 2 Z M 25 13 C 28.78125 13 32.277344 14.753906 34.542969 17.738281 L 30.160156 20.277344 C 28.84375 18.835938 26.972656 18 25 18 C 21.140625 18 18 21.140625 18 25 C 18 28.859375 21.140625 32 25 32 C 26.972656 32 28.84375 31.164063 30.160156 29.722656 L 34.542969 32.261719 C 32.277344 35.246094 28.78125 37 25 37 C 18.382813 37 13 31.617188 13 25 C 13 18.382813 18.382813 13 25 13 Z M 35 20 L 37 20 L 37 22 L 39 22 L 39 20 L 41 20 L 41 22 L 43 22 L 43 24 L 41 24 L 41 26 L 43 26 L 43 28 L 41 28 L 41 30 L 39 30 L 39 28 L 37 28 L 37 30 L 35 30 L 35 28 L 33 28 L 33 26 L 35 26 L 35 24 L 33 24 L 33 22 L 35 22 Z M 37 24 L 37 26 L 39 26 L 39 24 Z"
        />
    </symbol>

    <symbol id="caret-down" viewBox="0 0 320 512">
        <path class="fa-secondary" opacity=".4"
            d="M137.4 374.6c12.5 12.5 32.8 12.5 45.3 0l128-128c9.2-9.2 11.9-22.9 6.9-34.9s-16.6-19.8-29.6-19.8L32 192c-12.9 0-24.6 7.8-29.6 19.8s-2.2 25.7 6.9 34.9l128 128z" />
        <path class="fa-primary" d="" />
    </symbol>

    <symbol id="css" viewBox="0 0 384 512">
        <path
            d="M0 32l34.9 395.8L192 480l157.1-52.2L384 32H0zm313.1 80l-4.8 47.3L193 208.6l-.3 .1h111.5l-12.8 146.6-98.2 28.7-98.8-29.2-6.4-73.9h48.9l3.2 38.3 52.6 13.3 54.7-15.4 3.7-61.6-166.3-.5v-.1l-.2 .1-3.6-46.3L193.1 162l6.5-2.7H76.7L70.9 112h242.2z" />
    </symbol>

    <symbol id="database" viewBox="0 0 448 512">
        <path
            d="M448 80v48c0 44.2-100.3 80-224 80S0 172.2 0 128V80C0 35.8 100.3 0 224 0S448 35.8 448 80zM393.2 214.7c20.8-7.4 39.9-16.9 54.8-28.6V288c0 44.2-100.3 80-224 80S0 332.2 0 288V186.1c14.9 11.8 34 21.2 54.8 28.6C99.7 230.7 159.5 240 224 240s124.3-9.3 169.2-25.3zM0 346.1c14.9 11.8 34 21.2 54.8 28.6C99.7 390.7 159.5 400 224 400s124.3-9.3 169.2-25.3c20.8-7.4 39.9-16.9 54.8-28.6V432c0 44.2-100.3 80-224 80S0 476.2 0 432V346.1z" />
    </symbol>

    <symbol id="docker" viewBox="0 0 640 512">
        <path
            d="M349.9 236.3h-66.1v-59.4h66.1v59.4zm0-204.3h-66.1v60.7h66.1V32zm78.2 144.8H362v59.4h66.1v-59.4zm-156.3-72.1h-66.1v60.1h66.1v-60.1zm78.1 0h-66.1v60.1h66.1v-60.1zm276.8 100c-14.4-9.7-47.6-13.2-73.1-8.4-3.3-24-16.7-44.9-41.1-63.7l-14-9.3-9.3 14c-18.4 27.8-23.4 73.6-3.7 103.8-8.7 4.7-25.8 11.1-48.4 10.7H2.4c-8.7 50.8 5.8 116.8 44 162.1 37.1 43.9 92.7 66.2 165.4 66.2 157.4 0 273.9-72.5 328.4-204.2 21.4 .4 67.6 .1 91.3-45.2 1.5-2.5 6.6-13.2 8.5-17.1l-13.3-8.9zm-511.1-27.9h-66v59.4h66.1v-59.4zm78.1 0h-66.1v59.4h66.1v-59.4zm78.1 0h-66.1v59.4h66.1v-59.4zm-78.1-72.1h-66.1v60.1h66.1v-60.1z" />
    </symbol>

    <symbol id="envelope" viewBox="0 0 512 512">
        <path
            d="M48 64C21.5 64 0 85.5 0 112c0 15.1 7.1 29.3 19.2 38.4L236.8 313.6c11.4 8.5 27 8.5 38.4 0L492.8 150.4c12.1-9.1 19.2-23.3 19.2-38.4c0-26.5-21.5-48-48-48L48 64zM0 176L0 384c0 35.3 28.7 64 64 64l384 0c35.3 0 64-28.7 64-64l0-208L294.4 339.2c-22.8 17.1-54 17.1-76.8 0L0 176z" />
    </symbol>

    <symbol id="github" viewBox="0 0 496 512">
        <path
            d="M165.9 397.4c0 2-2.3 3.6-5.2 3.6-3.3 .3-5.6-1.3-5.6-3.6 0-2 2.3-3.6 5.2-3.6 3-.3 5.6 1.3 5.6 3.6zm-31.1-4.5c-.7 2 1.3 4.3 4.3 4.9 2.6 1 5.6 0 6.2-2s-1.3-4.3-4.3-5.2c-2.6-.7-5.5 .3-6.2 2.3zm44.2-1.7c-2.9 .7-4.9 2.6-4.6 4.9 .3 2 2.9 3.3 5.9 2.6 2.9-.7 4.9-2.6 4.6-4.6-.3-1.9-3-3.2-5.9-2.9zM244.8 8C106.1 8 0 113.3 0 252c0 110.9 69.8 205.8 169.5 239.2 12.8 2.3 17.3-5.6 17.3-12.1 0-6.2-.3-40.4-.3-61.4 0 0-70 15-84.7-29.8 0 0-11.4-29.1-27.8-36.6 0 0-22.9-15.7 1.6-15.4 0 0 24.9 2 38.6 25.8 21.9 38.6 58.6 27.5 72.9 20.9 2.3-16 8.8-27.1 16-33.7-55.9-6.2-112.3-14.3-112.3-110.5 0-27.5 7.6-41.3 23.6-58.9-2.6-6.5-11.1-33.3 2.6-67.9 20.9-6.5 69 27 69 27 20-5.6 41.5-8.5 62.8-8.5s42.8 2.9 62.8 8.5c0 0 48.1-33.6 69-27 13.7 34.7 5.2 61.4 2.6 67.9 16 17.7 25.8 31.5 25.8 58.9 0 96.5-58.9 104.2-114.8 110.5 9.2 7.9 17 22.9 17 46.4 0 33.7-.3 75.4-.3 83.6 0 6.5 4.6 14.4 17.3 12.1C428.2 457.8 496 362.9 496 252 496 113.3 383.5 8 244.8 8zM97.2 352.9c-1.3 1-1 3.3 .7 5.2 1.6 1.6 3.9 2.3 5.2 1 1.3-1 1-3.3-.7-5.2-1.6-1.6-3.9-2.3-5.2-1zm-10.8-8.1c-.7 1.3 .3 2.9 2.3 3.9 1.6 1 3.6 .7 4.3-.7 .7-1.3-.3-2.9-2.3-3.9-2-.6-3.6-.3-4.3 .7zm32.4 35.6c-1.6 1.3-1 4.3 1.3 6.2 2.3 2.3 5.2 2.6 6.5 1 1.3-1.3 .7-4.3-1.3-6.2-2.2-2.3-5.2-2.6-6.5-1zm-11.4-14.7c-1.6 1-1.6 3.6 0 5.9 1.6 2.3 4.3 3.3 5.6 2.3 1.6-1.3 1.6-3.9 0-6.2-1.4-2.3-4-3.3-5.6-2z"
        />
    </symbol>

    <symbol id="html" viewBox="0 0 384 512">
        <path
            d="M0 32l34.9 395.8L191.5 480l157.6-52.2L384 32H0zm308.2 127.9H124.4l4.1 49.4h175.6l-13.6 148.4-97.9 27v.3h-1.1l-98.7-27.3-6-75.8h47.7L138 320l53.5 14.5 53.7-14.5 6-62.2H84.3L71.5 112.2h241.1l-4.4 47.7z" />
    </symbol>

    <symbol id="instagram" viewBox="0 0 448 512">
        <path
            d="M224.1 141c-63.6 0-114.9 51.3-114.9 114.9s51.3 114.9 114.9 114.9S339 319.5 339 255.9 287.7 141 224.1 141zm0 189.6c-41.1 0-74.7-33.5-74.7-74.7s33.5-74.7 74.7-74.7 74.7 33.5 74.7 74.7-33.6 74.7-74.7 74.7zm146.4-194.3c0 14.9-12 26.8-26.8 26.8-14.9 0-26.8-12-26.8-26.8s12-26.8 26.8-26.8 26.8 12 26.8 26.8zm76.1 27.2c-1.7-35.9-9.9-67.7-36.2-93.9-26.2-26.2-58-34.4-93.9-36.2-37-2.1-147.9-2.1-184.9 0-35.8 1.7-67.6 9.9-93.9 36.1s-34.4 58-36.2 93.9c-2.1 37-2.1 147.9 0 184.9 1.7 35.9 9.9 67.7 36.2 93.9s58 34.4 93.9 36.2c37 2.1 147.9 2.1 184.9 0 35.9-1.7 67.7-9.9 93.9-36.2 26.2-26.2 34.4-58 36.2-93.9 2.1-37 2.1-147.8 0-184.8zM398.8 388c-7.8 19.6-22.9 34.7-42.6 42.6-29.5 11.7-99.5 9-132.1 9s-102.7 2.6-132.1-9c-19.6-7.8-34.7-22.9-42.6-42.6-11.7-29.5-9-99.5-9-132.1s-2.6-102.7 9-132.1c7.8-19.6 22.9-34.7 42.6-42.6 29.5-11.7 99.5-9 132.1-9s102.7-2.6 132.1 9c19.6 7.8 34.7 22.9 42.6 42.6 11.7 29.5 9 99.5 9 132.1s2.7 102.7-9 132.1z"
        />
    </symbol>

    <symbol id="javascript" viewBox="0 0 448 512">
        <path
            d="M0 32v448h448V32H0zm243.8 349.4c0 43.6-25.6 63.5-62.9 63.5-33.7 0-53.2-17.4-63.2-38.5l34.3-20.7c6.6 11.7 12.6 21.6 27.1 21.6 13.8 0 22.6-5.4 22.6-26.5V237.7h42.1v143.7zm99.6 63.5c-39.1 0-64.4-18.6-76.7-43l34.3-19.8c9 14.7 20.8 25.6 41.5 25.6 17.4 0 28.6-8.7 28.6-20.8 0-14.4-11.4-19.5-30.7-28l-10.5-4.5c-30.4-12.9-50.5-29.2-50.5-63.5 0-31.6 24.1-55.6 61.6-55.6 26.8 0 46 9.3 59.8 33.7L368 290c-7.2-12.9-15-18-27.1-18-12.3 0-20.1 7.8-20.1 18 0 12.6 7.8 17.7 25.9 25.6l10.5 4.5c35.8 15.3 55.9 31 55.9 66.2 0 37.8-29.8 58.6-69.7 58.6z"
        />
    </symbol>

    <symbol id="kubernetes" viewBox="0 -10.44 722.846 722.846">
        <path
            d="M361.408 99.307c-8.077.001-14.626 7.276-14.625 16.25 0 .138.028.27.03.406-.011 1.22-.07 2.689-.03 3.75.192 5.176 1.32 9.138 2 13.907 1.23 10.206 2.26 18.667 1.625 26.531-.62 2.965-2.803 5.677-4.75 7.562l-.344 6.188a190.337 190.337 0 00-26.438 4.062c-37.974 8.623-70.67 28.184-95.562 54.594a245.167 245.167 0 01-5.281-3.75c-2.612.353-5.25 1.159-8.688-.844-6.545-4.405-12.506-10.486-19.719-17.812-3.305-3.504-5.698-6.841-9.625-10.219-.891-.767-2.252-1.804-3.25-2.594-3.07-2.447-6.69-3.724-10.187-3.843-4.496-.154-8.824 1.604-11.656 5.156-5.036 6.315-3.424 15.968 3.593 21.562.071.057.147.101.219.157.964.781 2.145 1.783 3.031 2.437 4.167 3.077 7.973 4.652 12.125 7.094 8.747 5.402 15.999 9.88 21.75 15.281 2.246 2.394 2.639 6.613 2.938 8.438l4.687 4.187c-25.093 37.764-36.707 84.41-29.843 131.938l-6.125 1.781c-1.615 2.085-3.896 5.365-6.282 6.344-7.525 2.37-15.994 3.24-26.218 4.312-4.8.4-8.943.161-14.032 1.125-1.12.212-2.68.619-3.906.906l-.125.032c-.067.015-.155.048-.219.062-8.62 2.083-14.157 10.006-12.375 17.813 1.783 7.808 10.203 12.556 18.875 10.687.063-.014.154-.017.219-.031.098-.022.184-.07.281-.094 1.21-.265 2.724-.56 3.782-.843 5.003-1.34 8.626-3.308 13.125-5.032 9.676-3.47 17.691-6.37 25.5-7.5 3.26-.255 6.697 2.012 8.406 2.969l6.375-1.094c14.67 45.483 45.414 82.245 84.344 105.313l-2.657 6.375c.958 2.475 2.014 5.824 1.3 8.27-2.838 7.36-7.7 15.13-13.237 23.792-2.681 4.002-5.425 7.108-7.844 11.688-.579 1.096-1.316 2.78-1.875 3.937-3.759 8.043-1.002 17.305 6.219 20.782 7.266 3.497 16.284-.192 20.187-8.25.006-.012.026-.02.031-.032.004-.009-.004-.022 0-.03.556-1.143 1.344-2.645 1.813-3.72 2.072-4.747 2.762-8.815 4.219-13.406 3.87-9.72 5.995-19.919 11.322-26.274 1.459-1.74 3.837-2.41 6.303-3.07l3.312-6c33.938 13.027 71.927 16.523 109.875 7.907a189.77 189.77 0 0025.094-7.563c.93 1.651 2.661 4.826 3.125 5.625 2.506.815 5.24 1.236 7.469 4.531 3.985 6.81 6.71 14.865 10.031 24.594 1.457 4.591 2.178 8.66 4.25 13.406.472 1.082 1.256 2.605 1.812 3.75 3.895 8.085 12.943 11.787 20.22 8.282 7.219-3.478 9.979-12.74 6.218-20.782-.559-1.158-1.327-2.841-1.906-3.937-2.42-4.58-5.163-7.655-7.844-11.656-5.537-8.662-10.13-15.858-12.969-23.22-1.187-3.796.2-6.157 1.125-8.624-.554-.635-1.739-4.22-2.437-5.906 40.457-23.889 70.298-62.022 84.312-106.063 1.893.298 5.182.88 6.25 1.094 2.2-1.45 4.222-3.344 8.188-3.031 7.808 1.129 15.823 4.03 25.5 7.5 4.498 1.723 8.121 3.723 13.125 5.062 1.057.283 2.572.547 3.781.813.097.023.183.071.281.093.066.015.156.017.219.032 8.672 1.866 17.094-2.88 18.875-10.688 1.78-7.807-3.754-15.732-12.375-17.812-1.254-.286-3.032-.77-4.25-1-5.09-.964-9.231-.727-14.031-1.125-10.225-1.072-18.694-1.943-26.219-4.313-3.068-1.19-5.251-4.841-6.313-6.344l-5.906-1.718c3.062-22.155 2.237-45.212-3.062-68.282-5.349-23.284-14.8-44.58-27.407-63.343 1.515-1.378 4.377-3.911 5.188-4.657.237-2.624.033-5.375 2.75-8.281 5.751-5.4 13.003-9.879 21.75-15.281 4.152-2.443 7.99-4.017 12.156-7.094.942-.696 2.23-1.798 3.219-2.594 7.015-5.596 8.63-15.248 3.594-21.562-5.037-6.314-14.797-6.91-21.813-1.313-.998.791-2.353 1.823-3.25 2.594-3.926 3.378-6.351 6.714-9.656 10.219-7.213 7.326-13.174 13.438-19.719 17.844-2.836 1.65-6.99 1.08-8.875.968l-5.562 3.969c-31.72-33.26-74.905-54.525-121.406-58.656-.13-1.949-.3-5.471-.344-6.532-1.904-1.821-4.204-3.376-4.781-7.312-.637-7.864.426-16.325 1.656-26.531.679-4.769 1.807-8.73 2-13.907.044-1.176-.027-2.884-.031-4.156-.001-8.974-6.548-16.25-14.625-16.25zm-18.313 113.438l-4.344 76.718-.312.157c-.292 6.863-5.94 12.343-12.875 12.343-2.841 0-5.463-.912-7.594-2.468l-.125.062-62.906-44.594c19.333-19.01 44.063-33.06 72.562-39.53a154.125 154.125 0 0115.594-2.688zm36.656 0c33.274 4.092 64.045 19.159 87.625 42.25l-62.5 44.312-.218-.093c-5.548 4.051-13.364 3.046-17.688-2.375a12.807 12.807 0 01-2.812-7.47l-.063-.03zM232.126 283.62l57.438 51.375-.063.312c5.185 4.507 5.95 12.328 1.625 17.75a12.892 12.892 0 01-6.687 4.406l-.063.25-73.625 21.25c-3.747-34.265 4.329-67.573 21.375-95.343zm258.157.03c8.534 13.833 14.996 29.283 18.843 46.032 3.801 16.548 4.755 33.067 3.188 49.031l-74-21.312-.063-.313c-6.626-1.81-10.699-8.551-9.156-15.312a12.786 12.786 0 014.094-6.844l-.031-.156 57.125-51.125zm-140.657 55.313h23.532l14.625 18.282-5.25 22.812-21.125 10.156-21.188-10.187-5.25-22.813zm75.438 62.563c1-.05 1.995.04 2.969.219l.125-.157 76.156 12.875c-11.146 31.314-32.473 58.44-60.969 76.594l-29.562-71.406.093-.125c-2.715-6.31.002-13.71 6.25-16.719 1.6-.77 3.271-1.197 4.938-1.281zm-127.906.312c5.811.082 11.024 4.116 12.375 10.032.632 2.77.324 5.513-.72 7.937l.22.281-29.25 70.688c-27.348-17.549-49.13-43.824-60.782-76.063l75.5-12.812.125.156c.845-.155 1.701-.23 2.532-.219zm63.78 30.97a12.764 12.764 0 016.032 1.28c2.56 1.233 4.537 3.174 5.781 5.5h.282l37.218 67.25a154.256 154.256 0 01-14.875 4.157c-28.464 6.463-56.838 4.504-82.53-4.25l37.124-67.125h.063a12.91 12.91 0 0110.906-6.813z" />
    </symbol>

    <symbol id="linkedin" viewBox="0 0 448 512">
        <path
            d="M416 32H31.9C14.3 32 0 46.5 0 64.3v383.4C0 465.5 14.3 480 31.9 480H416c17.6 0 32-14.5 32-32.3V64.3c0-17.8-14.4-32.3-32-32.3zM135.4 416H69V202.2h66.5V416zm-33.2-243c-21.3 0-38.5-17.3-38.5-38.5S80.9 96 102.2 96c21.2 0 38.5 17.3 38.5 38.5 0 21.3-17.2 38.5-38.5 38.5zm282.1 243h-66.4V312c0-24.8-.5-56.7-34.5-56.7-34.6 0-39.9 27-39.9 54.9V416h-66.4V202.2h63.7v29.2h.9c8.9-16.8 30.6-34.5 62.9-34.5 67.2 0 79.7 44.3 79.7 101.9V416z"
        />
    </symbol>

    <symbol id="moon" viewBox="0 0 384 512">
        <path
            d="M223.5 32C100 32 0 132.3 0 256S100 480 223.5 480c60.6 0 115.5-24.2 155.8-63.4c5-4.9 6.3-12.5 3.1-18.7s-10.1-9.7-17-8.5c-9.8 1.7-19.8 2.6-30.1 2.6c-96.9 0-175.5-78.8-175.5-176c0-65.8 36-123.1 89.3-153.3c6.1-3.5 9.2-10.5 7.7-17.3s-7.3-11.9-14.3-12.5c-6.3-.5-12.6-.8-19-.8z" />
    </symbol>

    <symbol id="more" viewBox="0 0 448 512">
        <path
            d="M8 256a56 56 0 1 1 112 0A56 56 0 1 1 8 256zm160 0a56 56 0 1 1 112 0 56 56 0 1 1 -112 0zm216-56a56 56 0 1 1 0 112 56 56 0 1 1 0-112z" />
    </symbol>

    <symbol id="node" viewBox="0 0 640 512">
        <path
            d="M316.3 452c-2.1 0-4.2-.6-6.1-1.6L291 439c-2.9-1.6-1.5-2.2-.5-2.5 3.8-1.3 4.6-1.6 8.7-4 .4-.2 1-.1 1.4 .1l14.8 8.8c.5 .3 1.3 .3 1.8 0L375 408c.5-.3 .9-.9 .9-1.6v-66.7c0-.7-.3-1.3-.9-1.6l-57.8-33.3c-.5-.3-1.2-.3-1.8 0l-57.8 33.3c-.6 .3-.9 1-.9 1.6v66.7c0 .6 .4 1.2 .9 1.5l15.8 9.1c8.6 4.3 13.9-.8 13.9-5.8v-65.9c0-.9 .7-1.7 1.7-1.7h7.3c.9 0 1.7 .7 1.7 1.7v65.9c0 11.5-6.2 18-17.1 18-3.3 0-6 0-13.3-3.6l-15.2-8.7c-3.7-2.2-6.1-6.2-6.1-10.5v-66.7c0-4.3 2.3-8.4 6.1-10.5l57.8-33.4c3.7-2.1 8.5-2.1 12.1 0l57.8 33.4c3.7 2.2 6.1 6.2 6.1 10.5v66.7c0 4.3-2.3 8.4-6.1 10.5l-57.8 33.4c-1.7 1.1-3.8 1.7-6 1.7zm46.7-65.8c0-12.5-8.4-15.8-26.2-18.2-18-2.4-19.8-3.6-19.8-7.8 0-3.5 1.5-8.1 14.8-8.1 11.9 0 16.3 2.6 18.1 10.6 .2 .8 .8 1.3 1.6 1.3h7.5c.5 0 .9-.2 1.2-.5 .3-.4 .5-.8 .4-1.3-1.2-13.8-10.3-20.2-28.8-20.2-16.5 0-26.3 7-26.3 18.6 0 12.7 9.8 16.1 25.6 17.7 18.9 1.9 20.4 4.6 20.4 8.3 0 6.5-5.2 9.2-17.4 9.2-15.3 0-18.7-3.8-19.8-11.4-.1-.8-.8-1.4-1.7-1.4h-7.5c-.9 0-1.7 .7-1.7 1.7 0 9.7 5.3 21.3 30.6 21.3 18.5 0 29-7.2 29-19.8zm54.5-50.1c0 6.1-5 11.1-11.1 11.1s-11.1-5-11.1-11.1c0-6.3 5.2-11.1 11.1-11.1 6-.1 11.1 4.8 11.1 11.1zm-1.8 0c0-5.2-4.2-9.3-9.4-9.3-5.1 0-9.3 4.1-9.3 9.3 0 5.2 4.2 9.4 9.3 9.4 5.2-.1 9.4-4.3 9.4-9.4zm-4.5 6.2h-2.6c-.1-.6-.5-3.8-.5-3.9-.2-.7-.4-1.1-1.3-1.1h-2.2v5h-2.4v-12.5h4.3c1.5 0 4.4 0 4.4 3.3 0 2.3-1.5 2.8-2.4 3.1 1.7 .1 1.8 1.2 2.1 2.8 .1 1 .3 2.7 .6 3.3zm-2.8-8.8c0-1.7-1.2-1.7-1.8-1.7h-2v3.5h1.9c1.6 0 1.9-1.1 1.9-1.8zM137.3 191c0-2.7-1.4-5.1-3.7-6.4l-61.3-35.3c-1-.6-2.2-.9-3.4-1h-.6c-1.2 0-2.3 .4-3.4 1L3.7 184.6C1.4 185.9 0 188.4 0 191l.1 95c0 1.3 .7 2.5 1.8 3.2 1.1 .7 2.5 .7 3.7 0L42 268.3c2.3-1.4 3.7-3.8 3.7-6.4v-44.4c0-2.6 1.4-5.1 3.7-6.4l15.5-8.9c1.2-.7 2.4-1 3.7-1 1.3 0 2.6 .3 3.7 1l15.5 8.9c2.3 1.3 3.7 3.8 3.7 6.4v44.4c0 2.6 1.4 5.1 3.7 6.4l36.4 20.9c1.1 .7 2.6 .7 3.7 0 1.1-.6 1.8-1.9 1.8-3.2l.2-95zM472.5 87.3v176.4c0 2.6-1.4 5.1-3.7 6.4l-61.3 35.4c-2.3 1.3-5.1 1.3-7.4 0l-61.3-35.4c-2.3-1.3-3.7-3.8-3.7-6.4v-70.8c0-2.6 1.4-5.1 3.7-6.4l61.3-35.4c2.3-1.3 5.1-1.3 7.4 0l15.3 8.8c1.7 1 3.9-.3 3.9-2.2v-94c0-2.8 3-4.6 5.5-3.2l36.5 20.4c2.3 1.2 3.8 3.7 3.8 6.4zm-46 128.9c0-.7-.4-1.3-.9-1.6l-21-12.2c-.6-.3-1.3-.3-1.9 0l-21 12.2c-.6 .3-.9 .9-.9 1.6v24.3c0 .7 .4 1.3 .9 1.6l21 12.1c.6 .3 1.3 .3 1.8 0l21-12.1c.6-.3 .9-.9 .9-1.6v-24.3zm209.8-.7c2.3-1.3 3.7-3.8 3.7-6.4V192c0-2.6-1.4-5.1-3.7-6.4l-60.9-35.4c-2.3-1.3-5.1-1.3-7.4 0l-61.3 35.4c-2.3 1.3-3.7 3.8-3.7 6.4v70.8c0 2.7 1.4 5.1 3.7 6.4l60.9 34.7c2.2 1.3 5 1.3 7.3 0l36.8-20.5c2.5-1.4 2.5-5 0-6.4L550 241.6c-1.2-.7-1.9-1.9-1.9-3.2v-22.2c0-1.3 .7-2.5 1.9-3.2l19.2-11.1c1.1-.7 2.6-.7 3.7 0l19.2 11.1c1.1 .7 1.9 1.9 1.9 3.2v17.4c0 2.8 3.1 4.6 5.6 3.2l36.7-21.3zM559 219c-.4 .3-.7 .7-.7 1.2v13.6c0 .5 .3 1 .7 1.2l11.8 6.8c.4 .3 1 .3 1.4 0L584 235c.4-.3 .7-.7 .7-1.2v-13.6c0-.5-.3-1-.7-1.2l-11.8-6.8c-.4-.3-1-.3-1.4 0L559 219zm-254.2 43.5v-70.4c0-2.6-1.6-5.1-3.9-6.4l-61.1-35.2c-2.1-1.2-5-1.4-7.4 0l-61.1 35.2c-2.3 1.3-3.9 3.7-3.9 6.4v70.4c0 2.8 1.9 5.2 4 6.4l61.2 35.2c2.4 1.4 5.2 1.3 7.4 0l61-35.2c1.8-1 3.1-2.7 3.6-4.7 .1-.5 .2-1.1 .2-1.7zm-74.3-124.9l-.8 .5h1.1l-.3-.5zm76.2 130.2l-.4-.7v.9l.4-.2z" />
    </symbol>

    <symbol id="rabbitmq" viewBox="0 0 256 271">
        <path
            d="M245.44 108.308h-85.09a7.738 7.738 0 0 1-7.735-7.734v-88.68C152.615 5.327 147.29 0 140.726 0h-30.375c-6.568 0-11.89 5.327-11.89 11.894v88.143c0 4.573-3.697 8.29-8.27 8.31l-27.885.133c-4.612.025-8.359-3.717-8.35-8.325l.173-88.241C54.144 5.337 48.817 0 42.24 0H11.89C5.321 0 0 5.327 0 11.894V260.21c0 5.834 4.726 10.56 10.555 10.56H245.44c5.834 0 10.56-4.726 10.56-10.56V118.868c0-5.834-4.726-10.56-10.56-10.56zm-39.902 93.233c0 7.645-6.198 13.844-13.843 13.844H167.69c-7.646 0-13.844-6.199-13.844-13.844v-24.005c0-7.646 6.198-13.844 13.844-13.844h24.005c7.645 0 13.843 6.198 13.843 13.844v24.005z" />
    </symbol>

    <symbol id="redis" viewBox="0 0 32 32">
        <path
            d="M31.99 19.12c-0.010 0.307-0.417 0.646-1.245 1.078-1.708 0.891-10.552 4.531-12.438 5.51-1.885 0.984-2.927 0.974-4.417 0.26-1.49-0.708-10.901-4.516-12.599-5.323-0.844-0.406-1.276-0.745-1.292-1.068v3.234c0 0.323 0.448 0.661 1.292 1.068 1.698 0.813 11.115 4.615 12.599 5.323 1.49 0.714 2.531 0.724 4.417-0.26 1.885-0.979 10.729-4.62 12.438-5.51 0.87-0.448 1.255-0.802 1.255-1.12 0-0.302 0-3.188 0-3.188 0-0.005-0.005-0.005-0.010-0.005zM31.99 13.849c-0.016 0.302-0.417 0.641-1.245 1.078-1.708 0.885-10.552 4.526-12.438 5.505-1.885 0.984-2.927 0.974-4.417 0.266-1.49-0.714-10.901-4.516-12.599-5.328-0.844-0.401-1.276-0.745-1.292-1.068v3.234c0 0.323 0.448 0.667 1.292 1.068 1.698 0.813 11.109 4.615 12.599 5.328 1.49 0.708 2.531 0.719 4.417-0.26 1.885-0.984 10.729-4.62 12.438-5.51 0.87-0.453 1.255-0.807 1.255-1.125 0-0.302 0-3.188 0-3.188s-0.005 0-0.010 0zM31.99 8.375c0.016-0.323-0.406-0.609-1.266-0.922-1.661-0.609-10.458-4.109-12.141-4.729-1.682-0.615-2.37-0.589-4.349 0.12-1.979 0.714-11.339 4.385-13.005 5.036-0.833 0.328-1.24 0.63-1.224 0.953v3.234c0 0.323 0.443 0.661 1.292 1.068 1.693 0.813 11.109 4.615 12.599 5.328 1.484 0.708 2.531 0.719 4.417-0.266 1.88-0.979 10.729-4.62 12.438-5.505 0.865-0.453 1.25-0.807 1.25-1.125 0-0.302 0-3.193 0-3.193zM11.458 11.438l7.417-1.135-2.24 3.281zM27.859 8.479l-4.859 1.922-4.385-1.734 4.854-1.917zM14.984 5.302l-0.719-1.323 2.24 0.875 2.109-0.688-0.573 1.365 2.151 0.807-2.771 0.286-0.625 1.495-1-1.667-3.203-0.286zM9.458 7.172c2.193 0 3.964 0.688 3.964 1.531 0 0.849-1.776 1.536-3.964 1.536s-3.964-0.688-3.964-1.536c0-0.844 1.776-1.531 3.964-1.531z" />
    </symbol>

    <symbol id="right-chevron" viewBox="0 0 320 512">
        <path
            d="M310.6 233.4c12.5 12.5 12.5 32.8 0 45.3l-192 192c-12.5 12.5-32.8 12.5-45.3 0s-12.5-32.8 0-45.3L242.7 256 73.4 86.6c-12.5-12.5-12.5-32.8 0-45.3s32.8-12.5 45.3 0l192 192z" />
    </symbol>

    <symbol id="sun" viewBox="0 0 512 512">
        <path
            d="M361.5 1.2c5 2.1 8.6 6.6 9.6 11.9L391 121l107.9 19.8c5.3 1 9.8 4.6 11.9 9.6s1.5 10.7-1.6 15.2L446.9 256l62.3 90.3c3.1 4.5 3.7 10.2 1.6 15.2s-6.6 8.6-11.9 9.6L391 391 371.1 498.9c-1 5.3-4.6 9.8-9.6 11.9s-10.7 1.5-15.2-1.6L256 446.9l-90.3 62.3c-4.5 3.1-10.2 3.7-15.2 1.6s-8.6-6.6-9.6-11.9L121 391 13.1 371.1c-5.3-1-9.8-4.6-11.9-9.6s-1.5-10.7 1.6-15.2L65.1 256 2.8 165.7c-3.1-4.5-3.7-10.2-1.6-15.2s6.6-8.6 11.9-9.6L121 121 140.9 13.1c1-5.3 4.6-9.8 9.6-11.9s10.7-1.5 15.2 1.6L256 65.1 346.3 2.8c4.5-3.1 10.2-3.7 15.2-1.6zM160 256a96 96 0 1 1 192 0 96 96 0 1 1 -192 0zm224 0a128 128 0 1 0 -256 0 128 128 0 1 0 256 0z" />
    </symbol>

    <symbol id="bootstrap" viewBox="0 0 576 512">
        <path
            d="M333.5 201.4c0-22.1-15.6-34.3-43-34.3h-50.4v71.2h42.5C315.4 238.2 333.5 225 333.5 201.4zM517 188.6c-9.5-30.9-10.9-68.8-9.8-98.1c1.1-30.5-22.7-58.5-54.7-58.5H123.7c-32.1 0-55.8 28.1-54.7 58.5c1 29.3-.3 67.2-9.8 98.1c-9.6 31-25.7 50.6-52.2 53.1v28.5c26.4 2.5 42.6 22.1 52.2 53.1c9.5 30.9 10.9 68.8 9.8 98.1c-1.1 30.5 22.7 58.5 54.7 58.5h328.7c32.1 0 55.8-28.1 54.7-58.5c-1-29.3 .3-67.2 9.8-98.1c9.6-31 25.7-50.6 52.1-53.1v-28.5C542.7 239.2 526.5 219.6 517 188.6zM300.2 375.1h-97.9V136.8h97.4c43.3 0 71.7 23.4 71.7 59.4c0 25.3-19.1 47.9-43.5 51.8v1.3c33.2 3.6 55.5 26.6 55.5 58.3C383.4 349.7 352.1 375.1 300.2 375.1zM290.2 266.4h-50.1v78.4h52.3c34.2 0 52.3-13.7 52.3-39.5C344.7 279.6 326.1 266.4 290.2 266.4z" />
    </symbol>

    <symbol id="hat" viewBox="0 0 640 512">
        <path
            d="M320 32c-8.1 0-16.1 1.4-23.7 4.1L15.8 137.4C6.3 140.9 0 149.9 0 160s6.3 19.1 15.8 22.6l57.9 20.9C57.3 229.3 48 259.8 48 291.9l0 28.1c0 28.4-10.8 57.7-22.3 80.8c-6.5 13-13.9 25.8-22.5 37.6C0 442.7-.9 448.3 .9 453.4s6 8.9 11.2 10.2l64 16c4.2 1.1 8.7 .3 12.4-2s6.3-6.1 7.1-10.4c8.6-42.8 4.3-81.2-2.1-108.7C90.3 344.3 86 329.8 80 316.5l0-24.6c0-30.2 10.2-58.7 27.9-81.5c12.9-15.5 29.6-28 49.2-35.7l157-61.7c8.2-3.2 17.5 .8 20.7 9s-.8 17.5-9 20.7l-157 61.7c-12.4 4.9-23.3 12.4-32.2 21.6l159.6 57.6c7.6 2.7 15.6 4.1 23.7 4.1s16.1-1.4 23.7-4.1L624.2 182.6c9.5-3.4 15.8-12.5 15.8-22.6s-6.3-19.1-15.8-22.6L343.7 36.1C336.1 33.4 328.1 32 320 32zM128 408c0 35.3 86 72 192 72s192-36.7 192-72L496.7 262.6 354.5 314c-11.1 4-22.8 6-34.5 6s-23.5-2-34.5-6L143.3 262.6 128 408z" />
    </symbol>

</svg>
