<svg
    id="svelte"
    xmlns="http://www.w3.org/2000/svg"
    viewBox="0 0 128 128"
    width="48"
    height="48"
>
    <defs>
        <style>
            .cls-1 {
            fill: #8d8d93;
            }
            .cls-2 {
            fill: #4a4a55;
            }
            .cls-3 {
            fill: #000;
            }
            .cls-4 {
            fill: #fff;
            }
        </style>
    </defs>

    <path
        id="orange"
        class="cls-3"
        d="M110.286,28.319c-10.4-14.885-30.941-19.3-45.792-9.835L38.412,35.108A29.921,29.921,0,0,0,24.893,55.151,31.514,31.514,0,0,0,28,75.382a29.987,29.987,0,0,0-4.476,11.183,31.888,31.888,0,0,0,5.447,24.116c10.4,14.887,30.942,19.3,45.791,9.835l26.083-16.624a29.92,29.92,0,0,0,13.519-20.043,31.529,31.529,0,0,0-3.106-20.232,30,30,0,0,0,4.474-11.182,31.878,31.878,0,0,0-5.447-24.116"
    />
    <path
        id="white"
        class="cls-4"
        d="M61.946,112.082a20.72,20.72,0,0,1-22.237-8.243,19.176,19.176,0,0,1-3.276-14.5,18.143,18.143,0,0,1,.623-2.435l.491-1.5,1.337.981a33.633,33.633,0,0,0,10.2,5.1l.969.294-.089.968a5.844,5.844,0,0,0,1.052,3.878,6.24,6.24,0,0,0,6.7,2.485,5.748,5.748,0,0,0,1.6-.7L85.4,81.781A5.43,5.43,0,0,0,87.85,78.15a5.794,5.794,0,0,0-.988-4.371,6.244,6.244,0,0,0-6.7-2.487,5.737,5.737,0,0,0-1.6.7l-9.954,6.345a19.047,19.047,0,0,1-5.3,2.326,20.72,20.72,0,0,1-22.237-8.243,19.171,19.171,0,0,1-3.277-14.5A17.992,17.992,0,0,1,45.932,45.87L72.013,29.247a19.011,19.011,0,0,1,5.3-2.329,20.719,20.719,0,0,1,22.237,8.243,19.176,19.176,0,0,1,3.277,14.5A18.453,18.453,0,0,1,102.2,52.1l-.491,1.5-1.336-.979a33.616,33.616,0,0,0-10.2-5.1l-.97-.294.09-.968a5.859,5.859,0,0,0-1.052-3.878,6.24,6.24,0,0,0-6.695-2.485,5.742,5.742,0,0,0-1.6.7L53.859,57.219a5.425,5.425,0,0,0-2.449,3.63,5.79,5.79,0,0,0,.986,4.372,6.245,6.245,0,0,0,6.7,2.487,5.773,5.773,0,0,0,1.6-.7l9.952-6.342a18.978,18.978,0,0,1,5.3-2.328A20.718,20.718,0,0,1,98.18,66.576a19.171,19.171,0,0,1,3.277,14.5,18,18,0,0,1-8.13,12.054L67.246,109.753a19,19,0,0,1-5.3,2.329"
    />
</svg>
